<?xml version="1.0" encoding="UTF-8" standalone="no"?>
<svg
   xmlns:dc="http://purl.org/dc/elements/1.1/"
   xmlns:cc="http://creativecommons.org/ns#"
   xmlns:rdf="http://www.w3.org/1999/02/22-rdf-syntax-ns#"
   xmlns:svg="http://www.w3.org/2000/svg"
   xmlns="http://www.w3.org/2000/svg"
   xmlns:xlink="http://www.w3.org/1999/xlink"
   xmlns:sodipodi="http://sodipodi.sourceforge.net/DTD/sodipodi-0.dtd"
   xmlns:inkscape="http://www.inkscape.org/namespaces/inkscape"
   version="1.1"
   id="svg8"
   sodipodi:docname="gila.svg"
   inkscape:version="1.0.2 (e86c870, 2021-01-15)"
   x="0px"
   y="0px"
   viewBox="-7 -24.9 595.3 841.9"
   enable-background="new -7 -24.9 595.3 841.9"
   xml:space="preserve"><metadata
   id="metadata46"><rdf:RDF><cc:Work
       rdf:about=""><dc:format>image/svg+xml</dc:format><dc:type
         rdf:resource="http://purl.org/dc/dcmitype/StillImage" /></cc:Work></rdf:RDF></metadata>
<defs
   id="defs11"><inkscape:path-effect
   effect="powerclip"
   id="path-effect78"
   is_visible="true"
   lpeversion="1"
   inverse="true"
   flatten="false"
   hide_clip="false"
   message="Use fill-rule evenodd on &lt;b&gt;fill and stroke&lt;/b&gt; dialog if no flatten result after convert clip to paths." />
	
	
		<inkscape:path-effect
   effect="powerclip"
   inverse="true"
   id="path-effect73"
   flatten="false"
   message="Use fill-rule evenodd on &lt;b&gt;fill and stroke&lt;/b&gt; dialog if no flatten result after convert clip to paths."
   hide_clip="false"
   lpeversion="1"
   is_visible="true">
		</inkscape:path-effect>
<clipPath
   clipPathUnits="userSpaceOnUse"
   id="clipPath74"><ellipse
     style="display:none;fill:#4d4d4d"
     id="ellipse76"
     cx="72.285713"
     cy="151.52858"
     rx="86.428574"
     ry="70.714287"
     d="M 158.71429,151.52858 A 86.428574,70.714287 0 0 1 72.285713,222.24287 86.428574,70.714287 0 0 1 -14.14286,151.52858 86.428574,70.714287 0 0 1 72.285713,80.814293 86.428574,70.714287 0 0 1 158.71429,151.52858 Z" /><path
     id="lpe_path-effect78"
     style="fill:#4d4d4d"
     class="powerclip"
     d="M -16.471429,122.41731 H 194.92857 V 263.85678 H -16.471429 Z M 158.71429,151.52858 A 86.428574,70.714287 0 0 0 72.285713,80.814293 86.428574,70.714287 0 0 0 -14.14286,151.52858 86.428574,70.714287 0 0 0 72.285713,222.24287 86.428574,70.714287 0 0 0 158.71429,151.52858 Z" /></clipPath></defs>
<sodipodi:namedview
   id="base"
   inkscape:window-y="-6"
   inkscape:window-x="-6"
   inkscape:window-height="850"
   inkscape:window-width="1368"
   inkscape:current-layer="svg8"
   inkscape:document-units="mm"
   inkscape:pageshadow="2"
   inkscape:pageopacity="0.0"
   inkscape:cy="448.54452"
   inkscape:cx="-99.907636"
   inkscape:zoom="0.175"
   borderopacity="1.0"
   showgrid="false"
   bordercolor="#666666"
   pagecolor="#ffffff"
   inkscape:window-maximized="1"
   inkscape:document-rotation="0"
   inkscape:snap-global="false">
	</sodipodi:namedview>




















<g
   id="g935"
   inkscape:export-xdpi="96"
   inkscape:export-ydpi="96"
   transform="matrix(1.9136431,0,0,1.9136431,-280.28083,-388.06612)"><g
     id="g21">
	<defs
   id="defs15">
		<path
   id="SVGID_1_"
   d="m 336.5,248.7 c -17.3,0 -34.3,5.8 -49.3,16.9 h 98.6 c -14.9,-11 -32,-16.9 -49.3,-16.9 z m 49.3,16.9 c 30.2,22.3 48.8,63.4 48.8,107.7 0,68.8 -43.9,124.6 -98.1,124.6 -54.2,0 -98.1,-55.8 -98.1,-124.6 0,-5.3 0.3,-10.6 0.8,-15.8 0,0 0,0 0,0 -1.2,-0.2 -2.6,-0.5 -3.6,-0.8 -0.8,-0.1 -1.7,-0.3 -3.7,-0.8 -0.6,-0.2 -1.1,-0.5 -1.6,-0.8 -1.6,-0.4 -3.1,-0.9 -4.4,-1.2 -1.1,-0.3 -2.3,-0.5 -3.4,-0.8 v 0 c -4.2,-0.9 -7.2,-2.7 -9.1,-4.7 -2.6,-0.6 -5.1,-1.3 -7.7,-1.9 -3.3,-0.8 -24.1,-5.5 -27.1,-6.1 -0.8,-0.2 -1.5,-0.3 -2.3,-0.4 v 0 c -16.6,-2.8 -15.1,-18.7 -0.2,-18.3 1,0 2,0.1 3.2,0.3 0,0 0,0 0.1,0 -0.1,-0.1 -0.2,-0.1 -0.3,-0.2 -0.9,-0.7 -2.4,-1.3 -2.5,-2.4 0,-1.4 0.4,-2.7 0.9,-4.1 -0.1,-0.5 -0.3,-1.1 -0.4,-1.8 0,-0.2 0.5,-0.7 0.5,-0.5 0.1,0.4 0.2,0.7 0.3,1.1 0.3,-0.8 0.6,-1.5 0.8,-2.3 0.1,0 0.2,0 0.3,0 0,-0.1 0.1,-0.2 0.1,-0.3 0,-0.1 0.1,-0.1 0.2,-0.2 -0.4,-0.2 -0.6,-0.3 -1.1,-0.6 v 0 c -3,-1.6 -4.3,-3.8 -4.2,-5.6 -1.6,-1.1 -5.9,-2.4 -5.2,-4.3 1,-2.6 3.1,-4.7 5.3,-6.4 0.6,-0.5 1.5,0.4 2.3,0.6 0.7,0.2 3.3,0.6 4.1,0.7 0.9,0.2 5.4,1.5 8,2.3 0,0 0,-0.1 0,-0.1 2.5,-2 1.4,-1.5 5.8,-0.4 0,0 0,0 0,0 -0.2,-0.1 -0.4,-0.2 -0.6,-0.3 -0.6,-0.3 -2,-0.7 -1.6,-1.3 0,0 0.1,-0.1 0.1,-0.1 -1,-0.8 -3.5,-1.3 -3,-2.5 0.9,-2.1 2.6,-4.1 4.6,-5.4 0.4,-0.6 0.8,-1.1 1.2,-1.6 0.3,-0.4 0.7,-0.1 1.2,0.5 1.7,-0.5 3.3,1.6 5,2.4 1.2,0.6 2.4,1.1 3.6,1.7 0.1,-0.1 0.3,-0.3 0.5,-0.4 -4.9,-2.9 -8.9,-5.8 -2.9,-6.2 0.8,-2.7 2.5,-5.3 4.7,-7.1 0.4,-0.4 3.5,1.1 4.3,1.4 4.4,1.8 13.3,5.3 18.2,7.3 0,-0.1 0,-0.2 0.1,-0.3 3.9,-9.4 6.7,-7.8 11.9,-5.7 -0.4,-1.4 -0.7,-2.8 -0.2,-4.1 0.3,-0.8 1.2,-1 2.2,-1 1,0 2.2,0.3 3,0.5 0.8,0.2 1.4,0.5 2.1,0.9 0.1,-0.1 0.3,-0.1 0.4,-0.2 0,0 0,0 -0.1,0 -0.1,-0.1 0,0 0.1,0 0.2,-0.1 0.3,-0.2 0.5,-0.3 0.8,-0.4 1.6,0.6 2.4,1 1.9,0.9 3.7,1.8 5.5,2.7 0.3,0.2 0.6,0.3 1,0.5 0.3,0 0.6,-0.1 0.9,-0.1 0,-0.1 0,-0.3 0,-0.6 0.2,0.2 0.3,0.4 0.4,0.6 1.7,-0.2 3.4,-0.2 5,-0.1 0.5,-1.7 1.1,-1.9 2.8,-0.5 0.1,0.1 0.2,0.2 0.3,0.3 0,0 0.1,-0.1 0.1,-0.1 0.3,-0.3 0.7,0.4 1,0.6 0.7,0.4 1.1,0.8 1.6,1.1 5.1,-5.9 10.7,-11.2 16.7,-15.6 H 150 V 577.3 H 461.8 V 265.6 Z M 259.7,280 c -0.1,0 -0.3,0 -0.4,0 0,0.1 0.2,0.1 0.6,0.2 -0.1,0 -0.2,-0.1 -0.2,-0.2 z m -10.8,-3.8 c 0,0 0,0 0,0 0.2,0.2 0.4,0.3 0.6,0.5 -0.1,-0.2 -0.4,-0.4 -0.6,-0.5 z m -70.9,38 c -0.1,0.4 -0.3,0.7 -0.4,1.1 0.1,0.5 0.3,1 0.4,1.4 0.1,-0.5 0.2,-1 0.3,-1.5 -0.1,-0.3 -0.2,-0.7 -0.3,-1 z m 30.7,-35.5 c 0.2,0.1 0.3,0.2 0.5,0.3 0,0 0,-0.1 0,-0.1 0,-0.2 -0.3,-0.1 -0.5,-0.2 z m 20.3,70.7 c 0,0 0.2,0.3 0.2,0.3 0,0 0,0 0,0 0,-0.1 -0.2,-0.3 -0.2,-0.3 z" />
	</defs>
	<clipPath
   id="SVGID_2_">
		<use
   xlink:href="#SVGID_1_"
   overflow="visible"
   id="use17"
   x="0"
   y="0"
   width="100%"
   height="100%" />
	</clipPath>
	<path
   id="path59"
   sodipodi:nodetypes="sssss"
   clip-path="url(#SVGID_2_)"
   fill="#ff6600"
   d="m 447.6,421.5 c 0,78.3 -63.5,141.7 -141.7,141.7 -78.2,0 -134.2,-63.8 -141.7,-141.7 -9.1,-94.2 63.5,-141.7 141.7,-141.7 78.2,0 141.7,63.5 141.7,141.7 z" />
</g><path
     id="path229"
     sodipodi:nodetypes="sssssssssssssccs"
     fill="#d45500"
     d="m 365.9,544.8 c 0,9 -29.16233,18.01281 -55.76269,18.27881 -10.7492,0.10749 -18.68524,-0.13521 -28.74978,-1.90124 -8.66158,-1.51985 -19.04514,-4.97249 -19.04514,-4.97249 C 248.80822,551.1082 229.5,543.6 207.2,520 201.1,513.5 197,507.9 194.4,504.3 180.7,485.2 174.3,467.9 172,461.1 c 0,0 -8.3,-25.6 -8.4,-48.8 0,-16.9 4,-17.9 2.5,-31 -0.2,-1.3 -0.7,-4.3 0.8,-4.7 2.1,-0.6 9.4,18.1 27.6,18.1 8,0 26.4,-31.6 36.6,-13.7 0,0 -14.9,37.7 -14.8,66.6 0,9 4.5,37.9 22.8,52.2 20.3,15.8 36.9,26 60.8,33.9 14.7,5 37.3,10.7 66,11.1 z" /><path
     id="path123"
     sodipodi:nodetypes="sssssssssssss"
     fill="#333333"
     d="m 247.2,425.3 c 0,4 11.6,23.4 6.2,22.9 -5.4,-0.5 -30.1,-20 -36.1,-19.6 -11.1,0.7 -16.5,7.9 -19.6,7.5 0,0 -6.2,2.8 -6.2,-12.6 0,-2.2 -0.6,-3.5 -0.9,-4.1 0,0 -0.1,-0.1 -0.2,-0.3 -1.9,-2.9 -24.8,-2.9 -27,-8.8 0,0 0,-0.9 -0.1,-2.6 -0.1,-2.8 -0.1,-6.1 -0.1,-8.4 0.1,-3.6 0.4,-6.3 0.7,-9 1.7,-14.4 4.8,-24.5 4.8,-24.5 2.1,-0.7 9.1,-29.5 14.1,-23.2 7.6,9.8 13.8,59.4 17,59.1 6.3,-0.7 10.3,-7.7 13.3,-5.1 1.9,1.7 -2.2,7.2 0,11.4 0.2,0.4 0.8,1.3 2.1,2.3 6.1,4.8 28.7,13.6 32,15 z" /><path
     id="path126"
     sodipodi:nodetypes="sssssss"
     fill="#333333"
     d="m 445.5,397.5 c 0,0 -5.8,3 -9.1,3 -3,0 -4.4,3.9 -4.6,2.9 0,-0.1 1.2,-7.3 1.2,-7.4 0.1,-1.3 1.2,-0.5 4.5,-0.5 2.6,0 7.6,-0.6 7.6,-0.6 0,0.3 0.5,2.3 0.4,2.6 z" /><path
     id="path129"
     sodipodi:nodetypes="ssssss"
     fill="#333333"
     d="m 447.8,426.4 c -1,1.5 -4.4,-2.3 -9.9,-4 -5.6,-1.8 -11.4,0.3 -10.7,-1.7 3,-8.7 0.6,-2.5 2.4,-7.7 0,0 17.9,2.5 18.1,6.5 0.3,4.6 0.1,6.9 0.1,6.9 z" /><path
     id="path132"
     sodipodi:nodetypes="sssssss"
     fill="#333333"
     d="m 445.5,443.5 c 0,5.1 0.1,2.7 -2.1,12.9 -0.7,3.2 -7.4,-4.8 -14.4,-8.8 -5.5,-3.2 -4.7,-4.6 -3.6,-6.6 4.5,-7.8 -6.2,-1.1 -2.3,-8.9 1.4,-2.9 7.8,-0.9 13.3,2.4 4.9,2.9 9.1,6.6 9.1,9 z" /><path
     id="path135"
     sodipodi:nodetypes="ssssss"
     fill="#4d4d4d"
     d="m 431,441.1 c -1.6,2 -0.3,5 -2.8,5 -2.6,0 -2.3,-0.6 -7,-2.1 -0.8,-0.2 -3.2,-0.8 -3,-1.3 2.8,-5.6 2.2,-4.5 4.5,-9.3 1.1,-2.3 8.3,7.7 8.3,7.7 z" /><path
     id="path138"
     sodipodi:nodetypes="ssssss"
     fill="#333333"
     d="m 438.7,470.8 c -1.8,6.3 -1.4,5.4 -7.1,16.2 -1.8,3.4 -6.5,-7.4 -13.9,-14 -5.9,-5.4 -15.6,-6.1 -14.1,-8.1 6.1,-8.4 2.8,-4.1 7.6,-10.6 4,-5.8 29,11 27.5,16.5 z" /><path
     id="path141"
     sodipodi:nodetypes="ssssss"
     fill="#4d4d4d"
     d="m 428.7,460.3 c 0,3 -7.3,12.9 -10.6,12.9 -1.7,0 -4.7,-2.7 -8.3,-4.4 -3.4,-1.6 -7.5,-2.1 -6.6,-3.3 8.8,-12.4 0,0 8.8,-12.4 2,-2.7 16.7,4.2 16.7,7.2 z" /><path
     id="path144"
     sodipodi:nodetypes="ssccss"
     fill="#333333"
     d="m 420.4,505.4 c -8.9,11 0.2,0.7 -14.6,17.2 -2.8,3.1 -5.4,-9.8 -12.5,-19.1 -12.5,-15.3 -15.1,-12.7 0,-25.4 1.6,-1.3 12.4,4.5 14.4,5.9 6.4,4.7 16.6,16.6 12.7,21.4 z" /><path
     id="path147"
     sodipodi:nodetypes="ssssss"
     fill="#4d4d4d"
     d="m 418.8,496.9 c 0,4.7 -15.5,5.3 -21.1,5.3 -4.3,0 -15.8,-8.4 -19.2,-13.2 -1,-1.4 -1.6,-1.7 -0.7,-2.4 9.5,-7.7 4.3,-2.7 14.2,-11.3 4.2,-3.6 26.8,16.9 26.8,21.6 z" /><path
     id="path150"
     sodipodi:nodetypes="sssssss"
     fill="#4d4d4d"
     d="m 381.5,542 c -32.4,18.2 -60.6,24.4 -56.3,14 1.6,-3.7 18.2,-16 18.4,-24.3 0.4,-17 -16.3,-32.9 -8.2,-33.6 0,0 9.1,0 23.9,-3.6 5.9,-1.4 9.8,12.1 12.6,19.1 5.3,13 14.9,25.4 9.6,28.4 z" /><path
     id="path153"
     sodipodi:nodetypes="sssssssss"
     fill="#333333"
     d="m 320.9,518.9 c 0,7.2 -13.2,-11.9 -22,-5.2 -6.8,5.1 -27,6 -32.3,16.1 -5,9.5 4.42119,27.60552 1.42119,27.60552 -10.1,0 -17.82119,-13.90552 -17.82119,-32.00552 0,-9.6 6.8,-17.2 20,-39.2 9.8,-16.2 5.2,10.8 11.6,13.7 4.8,2.1 12.4,-10.4 14.4,-10.4 10.1,-0.1 24.7,11.3 24.7,29.4 z" /><path
     id="path198"
     sodipodi:nodetypes="ssccssssssssssccccccs"
     fill="#333333"
     d="m 265.9,459.6 c 2.6,3.3 3.7,4.4 3.4,5.8 -0.6,2.6 -5.5,3.7 -8.4,4.1 -2.5,0.7 -6.3,1.7 -10.9,2.6 -16.7,3.1 -19.4,-0.4 -26.3,2.3 -17.2,6.8 -22.7,30 -29,30.1 -0.3,0 -0.5,-0.1 -0.8,-0.4 -6.1,-8.9 -12.4894,-19.7894 -17.7894,-32.1894 -1.6,-3.8 -3.06844,-7.56314 -4.17903,-11.03687 C 170.16295,455.34183 185.7,460.8 190.8,455.5 c 5.4,-5.7 4.9,-14.3 7.2,-14.4 6.2,-0.2 4.9,13 9.5,17.2 5.6,4.9 16.7,1 17.7,1 3.9,0 12.2,-9 12.2,-15.9 0,-5.1 -8.4,-7.9 -6.9,-10.6 1.9,-3.3 6.6,-2.2 11,-0.5 3.4,1.3 6.6,-3.5 7.4,-2.1 1.1,2.2 2.4,4.2 2.7,4.9 0.9,2.3 1.4,3.5 1.7,4.2 0,0 1.17881,2.37881 2.47881,4.77881 4.6,8.4 10.12119,15.52119 10.12119,15.52119 z" /><path
     id="path10"
     sodipodi:nodetypes="sssss"
     fill="#ff7f2a"
     d="m 370,375.2 c 0,29.7 -45.1,55.9 -100.7,57.9 -62.1,2.1 -100.7,-29.3 -100.7,-65.4 0,-36.1 44,-70.7 100.7,-65.4 55.4,5.3 100.7,45.4 100.7,72.9 z" /><path
     id="path10-7"
     sodipodi:nodetypes="sssss"
     fill="#ff7f2a"
     d="m 189.92857,200.85714 c 0,29.7 -45.1,55.9 -100.699999,57.9 -62.1,2.1 -100.7,-29.3 -100.7,-65.4 0,-36.1 44,-70.7 100.7,-65.4 55.399999,5.3 100.699999,45.4 100.699999,72.9 z"
     clip-path="url(#clipPath74)"
     inkscape:path-effect="#path-effect78"
     inkscape:original-d="m 189.92857,200.85714 c 0,29.7 -45.1,55.9 -100.699999,57.9 -62.1,2.1 -100.7,-29.3 -100.7,-65.4 0,-36.1 44,-70.7 100.7,-65.4 55.399999,5.3 100.699999,45.4 100.699999,72.9 z"
     transform="translate(180.07143,174.34286)"
     style="fill:#d7692a;fill-opacity:1" /><ellipse
     id="path235"
     fill="#4d4d4d"
     cx="253.5"
     cy="366.20001"
     rx="54.200001"
     ry="50.400002" /><ellipse
     id="path13"
     cx="253.5"
     cy="365"
     rx="41"
     ry="40.200001" /><ellipse
     id="path35"
     fill="#ffffff"
     cx="267.20001"
     cy="351.39999"
     rx="13.9"
     ry="13.7" /><ellipse
     id="path35-5"
     fill="#ffffff"
     cx="248.60001"
     cy="368.20001"
     rx="6.3000002"
     ry="6.1999998" /><path
     fill="#333333"
     d="M 159.3,473.4"
     id="path41" /><path
     fill="#333333"
     d="M 163.5,406.3"
     id="path43" /></g>
</svg>
